<?xml version="1.0" standalone="no"?>
<!DOCTYPE svg PUBLIC "-//W3C//DTD SVG 20010904//EN"
 "http://www.w3.org/TR/2001/REC-SVG-20010904/DTD/svg10.dtd">
<svg version="1.0" xmlns="http://www.w3.org/2000/svg"
 width="257.000000pt" height="241.000000pt" viewBox="0 0 257.000000 241.000000"
 preserveAspectRatio="xMidYMid meet">

<g transform="translate(0.000000,241.000000) scale(0.100000,-0.100000)"
fill="#000000" stroke="none">
<path d="M840 2093 c-348 -68 -541 -110 -552 -120 -17 -15 -18 -65 -18 -774
l0 -759 22 -14 c13 -8 111 -31 218 -51 107 -20 345 -65 529 -101 184 -35 342
-64 353 -64 10 0 28 10 39 21 l21 21 -7 957 c-5 703 -10 959 -18 967 -7 7 -21
14 -32 17 -11 2 -261 -43 -555 -100z m440 -252 l0 -180 -42 -6 c-51 -7 -570
-65 -581 -65 -4 0 -6 71 -5 157 l3 157 295 57 c162 31 303 57 313 58 16 1 17
-14 17 -178z m-722 -110 c2 -79 0 -147 -5 -151 -4 -5 -47 -11 -95 -15 l-88 -7
0 145 0 146 58 11 c31 6 62 13 67 15 6 2 21 3 35 2 l25 -2 3 -144z m620 -385
c94 -136 94 -136 44 -136 l-40 0 -4 -172 c-5 -193 -17 -244 -71 -324 -65 -97
-134 -130 -239 -115 l-58 8 0 -54 c0 -29 -3 -53 -7 -53 -9 0 -143 212 -143
224 0 11 134 195 142 196 3 0 5 -24 3 -54 l-4 -55 56 -7 c77 -9 117 11 146 74
17 39 21 70 24 189 l3 142 -44 3 -45 3 75 118 c42 64 79 117 83 117 3 0 39
-47 79 -104z m-618 -381 c0 -256 -1 -465 -2 -465 -2 0 -41 7 -88 15 -47 8 -86
15 -87 15 -2 0 -3 200 -3 444 l0 445 53 4 c28 2 69 4 90 5 l37 2 0 -465z"/>
<path d="M1550 1940 l0 -40 315 0 315 0 0 -700 0 -700 -315 0 -315 0 0 -40 0
-40 338 0 c316 0 340 1 355 18 16 17 17 84 17 765 l0 746 -22 15 c-19 14 -70
16 -355 16 l-333 0 0 -40z"/>
<path d="M1550 1713 l0 -78 37 2 c21 1 41 2 46 2 4 1 7 35 7 76 l0 75 -45 0
-45 0 0 -77z"/>
<path d="M1720 1711 l0 -80 155 1 155 0 0 79 0 79 -155 0 -155 0 0 -79z"/>
<path d="M1550 1463 l0 -78 42 1 43 0 3 77 3 77 -46 0 -45 0 0 -77z"/>
<path d="M1720 1459 l0 -80 155 2 155 2 0 79 0 78 -155 0 -155 0 0 -81z"/>
<path d="M1550 1212 l0 -78 43 1 42 1 3 77 3 77 -46 0 -45 0 0 -78z"/>
<path d="M1720 1210 l0 -80 155 0 155 0 0 80 0 80 -155 0 -155 0 0 -80z"/>
<path d="M1550 963 l0 -78 42 1 43 1 3 77 3 76 -46 0 -45 0 0 -77z"/>
<path d="M1720 960 l0 -80 155 0 155 0 0 80 0 80 -155 0 -155 0 0 -80z"/>
<path d="M1552 713 l3 -78 40 0 40 0 3 78 3 77 -46 0 -46 0 3 -77z"/>
<path d="M1720 710 l0 -80 155 0 155 0 0 80 0 80 -155 0 -155 0 0 -80z"/>
</g>
</svg>
